# xmcd CD database file
#
# Track frame offsets:
#	187
#	15000
#	29200
#	44925
#	58952
#	73125
#	88945
#	103675
#	117850
#	133900
#	148037
#	161945
#	176467
#	189732
#	202870
#	221252
#	235875
#	249157
#	268457
#	280320
#
# Disc length: 3931 seconds
#
# Revision: 2
# Processed by: cddbd v1.5.2PL0 Copyright (c) Steve Scherf et al.
# Submitted via: CDex 1.70beta3
#
DISCID=3d0f5914
DTITLE=グレン・ミラー - グレン・ミラー BEST
DYEAR=1900
DGENRE=Swing
TTITLE0=ムーンライト・セレナーデ
TTITLE1=茶色の小瓶
TTITLE2=アメリカン・パトロール
TTITLE3=サヴォイでストンプ
TTITLE4=ムーングロウとピクニックのテーマ
TTITLE5=バードランドの子守唄
TTITLE6=真珠の首飾り
TTITLE7=ペンシルヴァニア6−5000
TTITLE8=タキシード・ジャンクション
TTITLE9=ラプソディ・イン・ブルー
TTITLE10=A列車で行こう
TTITLE11=セントルイス・ブルース・マーチ
TTITLE12=ストレンジャー・イン・パラダイス
TTITLE13=峠の我が家
TTITLE14=アンヴィル・コーラス
TTITLE15=イン・ザ・ムード
TTITLE16=アリス・ブルー・ガウン
TTITLE17=カラマズー
TTITLE18=慕情
TTITLE19=ヴォルガの舟唄
EXTD=
EXTT0=
EXTT1=
EXTT2=
EXTT3=
EXTT4=
EXTT5=
EXTT6=
EXTT7=
EXTT8=
EXTT9=
EXTT10=
EXTT11=
EXTT12=
EXTT13=
EXTT14=
EXTT15=
EXTT16=
EXTT17=
EXTT18=
EXTT19=
PLAYORDER=
